<svg xmlns="http://www.w3.org/2000/svg" width="1080" height="1080" viewBox="0 0 1080 1080"><defs><style>@import url('https://fonts.googleapis.com/css2?family=Playfair+Display:wght@700;900&amp;family=Outfit:wght@500;700;800&amp;display=swap');.pf{font-family:'Playfair Display',Georgia,serif;}.ti{font-family:'Outfit','Helvetica Neue',sans-serif;}.bd{font-family:'OutfitText','Helvetica Neue',sans-serif;}</style></defs><rect width="1080" height="1080" fill="#faf6ee"/><text x="990" y="1010" class="pf" font-size="640" font-weight="900" fill="#f59e0b" opacity="0.07" text-anchor="end">4</text><text x="96" y="112" class="ti" font-size="40" font-weight="800"><tspan fill="#f59e0b">F</tspan><tspan fill="#0f172a">ITZ</tspan><tspan fill="#f59e0b">HR</tspan></text><text x="984" y="112" class="ti" font-size="30" font-weight="800" fill="rgba(15,23,42,0.60)" text-anchor="end" letter-spacing="3">04 / 07</text><rect x="96" y="150" width="888" height="2" fill="rgba(15,23,42,0.14)"/><text x="96" y="300" class="ti" font-size="32" font-weight="800" fill="#f59e0b" letter-spacing="6">AWARD 04</text><circle cx="906" cy="336" r="84" fill="none" stroke="rgba(15,23,42,0.14)" stroke-width="2"/><g transform="translate(906,336) scale(1.25)" fill="none" stroke="#f59e0b" stroke-width="4.80" stroke-linecap="round" stroke-linejoin="round"><circle cx="0" cy="0" r="15"/><line x1="15.0" y1="0.0" x2="23.0" y2="0.0"/><line x1="10.6" y1="10.6" x2="16.3" y2="16.3"/><line x1="0.0" y1="15.0" x2="0.0" y2="23.0"/><line x1="-10.6" y1="10.6" x2="-16.3" y2="16.3"/><line x1="-15.0" y1="0.0" x2="-23.0" y2="0.0"/><line x1="-10.6" y1="-10.6" x2="-16.3" y2="-16.3"/><line x1="-0.0" y1="-15.0" x2="-0.0" y2="-23.0"/><line x1="10.6" y1="-10.6" x2="16.3" y2="-16.3"/><circle cx="0" cy="0" r="5"/></g><rect x="866" y="612" width="118" height="58" rx="29" fill="#f59e0b"/><text x="925" y="652" class="ti" font-size="28" font-weight="800" fill="#0f172a" text-anchor="middle" letter-spacing="1">NEW</text><text x="96" y="560" class="pf" font-size="123" font-weight="900" fill="#0f172a">Manufacturing</text><text x="96" y="652" class="ti" font-size="46" font-weight="800" fill="#f59e0b">MA000010</text><text x="96" y="732" class="bd" font-size="42" fill="rgba(15,23,42,0.60)">Factories, production &amp; food</text><text x="96" y="782" class="bd" font-size="42" fill="rgba(15,23,42,0.60)">manufacturing.</text><rect x="96" y="930" width="888" height="2" fill="rgba(15,23,42,0.14)"/><text x="96" y="984" class="ti" font-size="30" font-weight="800" fill="rgba(15,23,42,0.45)" letter-spacing="2">fitzhr.com</text><text x="984" y="984" class="bd" font-size="28" fill="rgba(15,23,42,0.45)" text-anchor="end">One platform. Every award.</text></svg>