<svg xmlns="http://www.w3.org/2000/svg" width="1080" height="1080" viewBox="0 0 1080 1080"><defs><style>@import url('https://fonts.googleapis.com/css2?family=Playfair+Display:wght@700;900&amp;family=Outfit:wght@500;700;800&amp;display=swap');.pf{font-family:'Playfair Display',Georgia,serif;}.ti{font-family:'Outfit','Helvetica Neue',sans-serif;}.bd{font-family:'OutfitText','Helvetica Neue',sans-serif;}</style></defs><rect width="1080" height="1080" fill="#faf6ee"/><text x="990" y="1010" class="pf" font-size="640" font-weight="900" fill="#f59e0b" opacity="0.07" text-anchor="end">1</text><text x="96" y="112" class="ti" font-size="40" font-weight="800"><tspan fill="#f59e0b">F</tspan><tspan fill="#0f172a">ITZ</tspan><tspan fill="#f59e0b">HR</tspan></text><text x="984" y="112" class="ti" font-size="30" font-weight="800" fill="rgba(15,23,42,0.60)" text-anchor="end" letter-spacing="3">01 / 07</text><rect x="96" y="150" width="888" height="2" fill="rgba(15,23,42,0.14)"/><text x="96" y="300" class="ti" font-size="32" font-weight="800" fill="#f59e0b" letter-spacing="6">AWARD 01</text><circle cx="906" cy="336" r="84" fill="none" stroke="rgba(15,23,42,0.14)" stroke-width="2"/><g transform="translate(906,336) scale(1.25)" fill="none" stroke="#f59e0b" stroke-width="4.80" stroke-linecap="round" stroke-linejoin="round"><path d="M -30 -14 H 26 V 14 A10 10 0 0 1 16 24 H -20 A10 10 0 0 1 -30 14 Z"/><path d="M 26 -6 A15 15 0 0 1 26 20"/><line x1="-34" y1="32" x2="34" y2="32"/><path d="M -8 -28 q6 -6 0 -14"/><path d="M 8 -28 q6 -6 0 -14"/></g><text x="96" y="560" class="pf" font-size="132" font-weight="900" fill="#0f172a">Hospitality</text><text x="96" y="652" class="ti" font-size="46" font-weight="800" fill="#f59e0b">MA000009</text><text x="96" y="732" class="bd" font-size="42" fill="rgba(15,23,42,0.60)">Pubs, bars, hotels, cafes &amp; catering.</text><rect x="96" y="930" width="888" height="2" fill="rgba(15,23,42,0.14)"/><text x="96" y="984" class="ti" font-size="30" font-weight="800" fill="rgba(15,23,42,0.45)" letter-spacing="2">fitzhr.com</text><text x="984" y="984" class="bd" font-size="28" fill="rgba(15,23,42,0.45)" text-anchor="end">One platform. Every award.</text></svg>