<svg xmlns="http://www.w3.org/2000/svg" width="1080" height="1920" viewBox="0 0 1080 1920">
  <defs>
    <style>
      @import url('https://fonts.googleapis.com/css2?family=Outfit:wght@500;700;800&amp;display=swap');
      .ti{font-family:'Outfit','Helvetica Neue',sans-serif;}
      .bd{font-family:'OutfitText','Helvetica Neue',sans-serif;}
    </style>
  </defs>
  <rect width="1080" height="1920" fill="#0f172a"/><rect x="60" y="300" width="10" height="1300" rx="5" fill="#f59e0b" opacity="0.9"/>
  <text x="100" y="300" class="ti" font-size="42" font-weight="800"><tspan fill="#f59e0b">F</tspan><tspan fill="#ffffff">ITZ</tspan><tspan fill="#f59e0b">HR</tspan></text><text x="980" y="300" class="ti" font-size="40" font-weight="800" fill="#f59e0b" text-anchor="end" letter-spacing="2">03 / 03</text>
  <g opacity="1"><animate attributeName="opacity" from="0" to="1" dur="0.6s" begin="0.12s" fill="freeze"/><animateTransform attributeName="transform" type="translate" begin="0.12s" dur="0.7s" fill="freeze" calcMode="spline" keySplines="0.16 0.7 0.2 1" keyTimes="0;1" values="0 30;0 0"/><text x="100" y="470" class="ti" font-size="36" font-weight="800" fill="#f59e0b" letter-spacing="6">WHO IT'S FOR</text><text x="100" y="600" class="ti" font-size="92" font-weight="800"><tspan fill="#ffffff">Now built </tspan><tspan fill="#f59e0b">for more</tspan></text></g>
  <g opacity="1"><animate attributeName="opacity" from="0" to="1" dur="0.6s" begin="0.32s" fill="freeze"/><animateTransform attributeName="transform" type="translate" begin="0.32s" dur="0.7s" fill="freeze" calcMode="spline" keySplines="0.16 0.7 0.2 1" keyTimes="0;1" values="0 30;0 0"/><rect x="100" y="734" width="64" height="64" rx="16" fill="#f59e0b"/><path d="M 118 767 L 128 778 L 147 753" fill="none" stroke="#0f172a" stroke-width="7" stroke-linecap="round" stroke-linejoin="round"/><text x="208" y="780" class="ti" font-size="48" font-weight="800" fill="#ffffff">Pubs, cafes &amp; venues</text><rect x="100" y="884" width="64" height="64" rx="16" fill="#f59e0b"/><path d="M 118 917 L 128 928 L 147 903" fill="none" stroke="#0f172a" stroke-width="7" stroke-linecap="round" stroke-linejoin="round"/><text x="208" y="930" class="ti" font-size="48" font-weight="800" fill="#ffffff">Shops &amp; retail</text><rect x="100" y="1034" width="64" height="64" rx="16" fill="#f59e0b"/><path d="M 118 1067 L 128 1078 L 147 1053" fill="none" stroke="#0f172a" stroke-width="7" stroke-linecap="round" stroke-linejoin="round"/><text x="208" y="1080" class="ti" font-size="48" font-weight="800" fill="#ffffff">Factories &amp; manufacturing</text><rect x="100" y="1184" width="64" height="64" rx="16" fill="#f59e0b"/><path d="M 118 1217 L 128 1228 L 147 1203" fill="none" stroke="#0f172a" stroke-width="7" stroke-linecap="round" stroke-linejoin="round"/><text x="208" y="1230" class="ti" font-size="48" font-weight="800" fill="#ffffff">Community, disability &amp; home care</text><rect x="100" y="1334" width="64" height="64" rx="16" fill="#f59e0b"/><path d="M 118 1367 L 128 1378 L 147 1353" fill="none" stroke="#0f172a" stroke-width="7" stroke-linecap="round" stroke-linejoin="round"/><text x="208" y="1380" class="ti" font-size="48" font-weight="800" fill="#ffffff">Clinics &amp; allied health</text><rect x="100" y="1484" width="64" height="64" rx="16" fill="#f59e0b"/><path d="M 118 1517 L 128 1528 L 147 1503" fill="none" stroke="#0f172a" stroke-width="7" stroke-linecap="round" stroke-linejoin="round"/><text x="208" y="1530" class="ti" font-size="48" font-weight="800" fill="#ffffff">Childcare &amp; early learning</text></g>
</svg>
