<svg xmlns="http://www.w3.org/2000/svg" width="1080" height="1920" viewBox="0 0 1080 1920">
  <defs>
    <style>
      @import url('https://fonts.googleapis.com/css2?family=Outfit:wght@500;700;800&amp;display=swap');
      .ti{font-family:'Outfit','Helvetica Neue',sans-serif;}
      .bd{font-family:'OutfitText','Helvetica Neue',sans-serif;}
    </style>
  </defs>
  <rect width="1080" height="1920" fill="#0f172a"/><rect x="60" y="300" width="10" height="1300" rx="5" fill="#f59e0b" opacity="0.9"/>
  <text x="100" y="300" class="ti" font-size="42" font-weight="800"><tspan fill="#f59e0b">F</tspan><tspan fill="#ffffff">ITZ</tspan><tspan fill="#f59e0b">HR</tspan></text><text x="980" y="300" class="ti" font-size="40" font-weight="800" fill="#f59e0b" text-anchor="end" letter-spacing="2">02 / 03</text>
  <g opacity="1"><animate attributeName="opacity" from="0" to="1" dur="0.6s" begin="0.12s" fill="freeze"/><animateTransform attributeName="transform" type="translate" begin="0.12s" dur="0.7s" fill="freeze" calcMode="spline" keySplines="0.16 0.7 0.2 1" keyTimes="0;1" values="0 30;0 0"/><text x="100" y="470" class="ti" font-size="36" font-weight="800" fill="#f59e0b" letter-spacing="6">THE FULL SUITE</text><text x="100" y="600" class="ti" font-size="92" font-weight="800"><tspan fill="#ffffff">Now: </tspan><tspan fill="#f59e0b">7 awards</tspan></text></g>
  <g opacity="1"><animate attributeName="opacity" from="0" to="1" dur="0.6s" begin="0.32s" fill="freeze"/><animateTransform attributeName="transform" type="translate" begin="0.32s" dur="0.7s" fill="freeze" calcMode="spline" keySplines="0.16 0.7 0.2 1" keyTimes="0;1" values="0 30;0 0"/><rect x="100" y="682" width="64" height="64" rx="16" fill="#f59e0b"/><path d="M 118 715 L 128 726 L 147 701" fill="none" stroke="#0f172a" stroke-width="7" stroke-linecap="round" stroke-linejoin="round"/><text x="208" y="720" class="ti" font-size="46" font-weight="800" fill="#ffffff">Hospitality</text><text x="208" y="764" class="bd" font-size="30" fill="#f59e0b">MA000009</text><rect x="100" y="820" width="64" height="64" rx="16" fill="#f59e0b"/><path d="M 118 853 L 128 864 L 147 839" fill="none" stroke="#0f172a" stroke-width="7" stroke-linecap="round" stroke-linejoin="round"/><text x="208" y="858" class="ti" font-size="46" font-weight="800" fill="#ffffff">Restaurant</text><text x="208" y="902" class="bd" font-size="30" fill="#f59e0b">MA000119</text><rect x="100" y="958" width="64" height="64" rx="16" fill="#f59e0b"/><path d="M 118 991 L 128 1002 L 147 977" fill="none" stroke="#0f172a" stroke-width="7" stroke-linecap="round" stroke-linejoin="round"/><text x="208" y="996" class="ti" font-size="46" font-weight="800" fill="#ffffff">Retail</text><text x="208" y="1040" class="bd" font-size="30" fill="#f59e0b">MA000004</text><rect x="846" y="958" width="118" height="60" rx="30" fill="#f59e0b"/><text x="905" y="1002" class="ti" font-size="30" font-weight="800" fill="#0f172a" text-anchor="middle" letter-spacing="1">NEW</text><rect x="100" y="1096" width="64" height="64" rx="16" fill="#f59e0b"/><path d="M 118 1129 L 128 1140 L 147 1115" fill="none" stroke="#0f172a" stroke-width="7" stroke-linecap="round" stroke-linejoin="round"/><text x="208" y="1134" class="ti" font-size="46" font-weight="800" fill="#ffffff">Manufacturing</text><text x="208" y="1178" class="bd" font-size="30" fill="#f59e0b">MA000010</text><rect x="846" y="1096" width="118" height="60" rx="30" fill="#f59e0b"/><text x="905" y="1140" class="ti" font-size="30" font-weight="800" fill="#0f172a" text-anchor="middle" letter-spacing="1">NEW</text><rect x="100" y="1234" width="64" height="64" rx="16" fill="#f59e0b"/><path d="M 118 1267 L 128 1278 L 147 1253" fill="none" stroke="#0f172a" stroke-width="7" stroke-linecap="round" stroke-linejoin="round"/><text x="208" y="1272" class="ti" font-size="46" font-weight="800" fill="#ffffff">SCHADS</text><text x="208" y="1316" class="bd" font-size="30" fill="#f59e0b">MA000100</text><rect x="846" y="1234" width="118" height="60" rx="30" fill="#f59e0b"/><text x="905" y="1278" class="ti" font-size="30" font-weight="800" fill="#0f172a" text-anchor="middle" letter-spacing="1">NEW</text><rect x="100" y="1372" width="64" height="64" rx="16" fill="#f59e0b"/><path d="M 118 1405 L 128 1416 L 147 1391" fill="none" stroke="#0f172a" stroke-width="7" stroke-linecap="round" stroke-linejoin="round"/><text x="208" y="1410" class="ti" font-size="46" font-weight="800" fill="#ffffff">Health Professionals</text><text x="208" y="1454" class="bd" font-size="30" fill="#f59e0b">MA000027</text><rect x="846" y="1372" width="118" height="60" rx="30" fill="#f59e0b"/><text x="905" y="1416" class="ti" font-size="30" font-weight="800" fill="#0f172a" text-anchor="middle" letter-spacing="1">NEW</text><rect x="100" y="1510" width="64" height="64" rx="16" fill="#f59e0b"/><path d="M 118 1543 L 128 1554 L 147 1529" fill="none" stroke="#0f172a" stroke-width="7" stroke-linecap="round" stroke-linejoin="round"/><text x="208" y="1548" class="ti" font-size="46" font-weight="800" fill="#ffffff">Children's Services</text><text x="208" y="1592" class="bd" font-size="30" fill="#f59e0b">MA000120</text><rect x="846" y="1510" width="118" height="60" rx="30" fill="#f59e0b"/><text x="905" y="1554" class="ti" font-size="30" font-weight="800" fill="#0f172a" text-anchor="middle" letter-spacing="1">NEW</text></g>
</svg>
